<svg id="Camada_1" data-name="Camada 1" xmlns="http://www.w3.org/2000/svg" viewBox="0 0 145 60"><defs><style>.cls-1{fill:#fff;}.cls-2{isolation:isolate;}.cls-3{fill:#931f23;}.cls-4{fill:#af1d23;}.cls-5{fill:#640d0f;}</style></defs><title>logo-web-primary</title><path class="cls-1" d="M70.35,33.29V18.8h6.94a5.24,5.24,0,0,1,3.48,1A3.6,3.6,0,0,1,82,22.75a3.19,3.19,0,0,1-.58,2,2.86,2.86,0,0,1-1.68,1A3.67,3.67,0,0,1,82,26.9a3.47,3.47,0,0,1,.72,2.29,3.6,3.6,0,0,1-1.37,3.06,6.64,6.64,0,0,1-4,1Zm4.89-11v2h.68a1.51,1.51,0,0,0,1-.27,1,1,0,0,0,0-1.5,1.55,1.55,0,0,0-1-.26Zm0,5.15v2.32h.87a2,2,0,0,0,1.19-.31,1.07,1.07,0,0,0,0-1.71,2,2,0,0,0-1.2-.3Z"/><path class="cls-1" d="M89.13,28.85h2.19v4.44H83.87V18.8h5.26Z"/><path class="cls-1" d="M106.77,26.09a7.29,7.29,0,0,1-.54,2.81,6.76,6.76,0,0,1-1.55,2.31,7.28,7.28,0,0,1-2.38,1.54,7.68,7.68,0,0,1-2.88.54,7.83,7.83,0,0,1-2.87-.53,7.37,7.37,0,0,1-2.39-1.56,6.61,6.61,0,0,1-1.54-2.29,7.26,7.26,0,0,1-.53-2.82,7.41,7.41,0,0,1,.52-2.82,7,7,0,0,1,3.91-3.84,7.79,7.79,0,0,1,2.9-.54,7.89,7.89,0,0,1,2.89.53A7.21,7.21,0,0,1,104.7,21a6.91,6.91,0,0,1,1.53,2.3A7.32,7.32,0,0,1,106.77,26.09Zm-7.35,2.6a2.14,2.14,0,0,0,1.67-.71,2.68,2.68,0,0,0,.64-1.88,2.78,2.78,0,0,0-.63-1.91,2.33,2.33,0,0,0-3.36,0,2.79,2.79,0,0,0-.63,1.9,3.43,3.43,0,0,0,.15,1.06,2.43,2.43,0,0,0,.48.82A2.18,2.18,0,0,0,99.42,28.69Z"/><path class="cls-1" d="M118.63,24.61a4.94,4.94,0,0,0-1.39-1,3.49,3.49,0,0,0-1.48-.32,2.64,2.64,0,0,0-2,.74,2.73,2.73,0,0,0-.74,2,2.69,2.69,0,0,0,.71,1.94,2.49,2.49,0,0,0,1.89.73,3.32,3.32,0,0,0,.72-.07,3.64,3.64,0,0,0,.74-.23,8.12,8.12,0,0,0,1.62-1l-.16,5.18a8.3,8.3,0,0,1-1.61.49,7.68,7.68,0,0,1-1.64.17,8.28,8.28,0,0,1-1.93-.22,6.83,6.83,0,0,1-1.7-.64,7.24,7.24,0,0,1-2.76-2.67,7.17,7.17,0,0,1-.94-3.7,8.65,8.65,0,0,1,.12-1.49,6.57,6.57,0,0,1,.41-1.38,6.8,6.8,0,0,1,1.55-2.32,6.65,6.65,0,0,1,2.38-1.54,8.11,8.11,0,0,1,2.93-.53,8.27,8.27,0,0,1,1.66.17,7.93,7.93,0,0,1,1.58.53Z"/><path class="cls-1" d="M134.73,26.05a7.37,7.37,0,0,1-.54,2.82,6.76,6.76,0,0,1-1.57,2.32,7.38,7.38,0,0,1-2.39,1.56,7.82,7.82,0,0,1-2.9.54,7.73,7.73,0,0,1-2.89-.54,7.15,7.15,0,0,1-2.4-1.56,6.8,6.8,0,0,1-1.56-2.3,7.59,7.59,0,0,1-.53-2.84,7.51,7.51,0,0,1,.52-2.84A6.88,6.88,0,0,1,122,20.89a7.09,7.09,0,0,1,2.39-1.55,7.76,7.76,0,0,1,2.91-.54,8,8,0,0,1,2.91.53,7.31,7.31,0,0,1,2.4,1.56,6.79,6.79,0,0,1,1.54,2.3A7.47,7.47,0,0,1,134.73,26.05Zm-7.4,2.61a2.15,2.15,0,0,0,1.68-.72,2.69,2.69,0,0,0,.65-1.89,2.82,2.82,0,0,0-.64-1.92,2.35,2.35,0,0,0-3.38,0,2.78,2.78,0,0,0-.64,1.91,3.21,3.21,0,0,0,.16,1.07,2.31,2.31,0,0,0,.48.83A2.18,2.18,0,0,0,127.33,28.66Z"/><path class="cls-1" d="M137.55,23.24h-2.18V18.8h7.44V33.29h-5.26Z"/><path class="cls-1" d="M71.23,40.55a1.68,1.68,0,0,1-.93-.21l.19-.59a1.07,1.07,0,0,0,.57.17.42.42,0,0,0,.48-.42c0-.23-.13-.37-.5-.53a1,1,0,0,1-.7-1,1.07,1.07,0,0,1,1.12-1.1,1.54,1.54,0,0,1,.83.21l-.17.51a1,1,0,0,0-.53-.15.38.38,0,0,0-.43.4c0,.26.18.39.48.53.68.31.78.68.78,1A1.12,1.12,0,0,1,71.23,40.55Z"/><path class="cls-1" d="M73.16,40.5V36.94H75v.57H74v.9h.85V39H74v1h1v.57Z"/><path class="cls-1" d="M76.94,40.55a1.11,1.11,0,0,1-1.23-1.1V36.94h.84v2.5a.42.42,0,0,0,.43.48c.24,0,.42-.16.42-.48v-2.5h.78v2.51A1.12,1.12,0,0,1,76.94,40.55Z"/><path class="cls-1" d="M81.66,40.55a2.35,2.35,0,0,1-1.07-.21V37.1a2.43,2.43,0,0,1,1-.21c1.16,0,1.6.78,1.6,1.82S82.81,40.55,81.66,40.55Zm0-3.11a.57.57,0,0,0-.24,0v2.45a.6.6,0,0,0,.25,0c.51,0,.7-.35.7-1.28S82.17,37.44,81.66,37.44Z"/><path class="cls-1" d="M84,40.5V36.94h.84V40.5Z"/><path class="cls-1" d="M87.73,40.5l-1.18-2a3.16,3.16,0,0,1-.19-.37h0a2.84,2.84,0,0,1,0,.39v2h-.71V36.94h.74l1.09,1.83a3.16,3.16,0,0,1,.18.34h0a3.47,3.47,0,0,1,0-.36V36.94h.71V40.5Z"/><path class="cls-1" d="M91,40.5V39h-.9V40.5h-.84V36.94h.84v1.47H91V36.94h.84V40.5Z"/><path class="cls-1" d="M92.66,40.5V36.94h1.82v.57h-1v.9h.85V39h-.85v1h1v.57Z"/><path class="cls-1" d="M95.23,40.5V36.94h.83V40.5Z"/><path class="cls-1" d="M98.61,40.5l-.84-1.57h0V40.5h-.83V37.1A2.6,2.6,0,0,1,98,36.89c1,0,1.4.44,1.4,1.11a.93.93,0,0,1-.82.91h0l1,1.58ZM98,37.37a.75.75,0,0,0-.24,0v1.31l.18,0c.43,0,.64-.27.64-.7S98.44,37.37,98,37.37Z"/><path class="cls-1" d="M101.41,40.55c-1,0-1.39-.82-1.39-1.83s.4-1.83,1.39-1.83,1.39.83,1.39,1.83S102.4,40.55,101.41,40.55Zm0-3.1c-.45,0-.53.64-.53,1.24s.08,1.24.53,1.24.54-.63.54-1.24S101.86,37.45,101.41,37.45Z"/><path class="cls-1" d="M104.22,39.36a.74.74,0,1,1,.73-.74A.74.74,0,0,1,104.22,39.36Z"/><path class="cls-1" d="M107,40.55c-1,0-1.39-.82-1.39-1.83s.4-1.83,1.39-1.83,1.39.83,1.39,1.83S108,40.55,107,40.55Zm0-3.1c-.45,0-.54.64-.54,1.24s.09,1.24.54,1.24.54-.63.54-1.24S107.47,37.45,107,37.45Z"/><path class="cls-1" d="M111.22,40.5l-1.18-2a3.16,3.16,0,0,1-.19-.37h0a2.84,2.84,0,0,1,0,.39v2h-.71V36.94h.74L111,38.77a3.16,3.16,0,0,1,.18.34h0a3.47,3.47,0,0,1,0-.36V36.94h.71V40.5Z"/><path class="cls-1" d="M112.73,40.5V36.94h.84v3h.9v.57Z"/><path class="cls-1" d="M115.15,40.5V36.94H116V40.5Z"/><path class="cls-1" d="M118.91,40.5l-1.18-2a3.16,3.16,0,0,1-.19-.37h0s0,.19,0,.39v2h-.7V36.94h.74l1.09,1.83a3.16,3.16,0,0,1,.18.34h0a3.47,3.47,0,0,1,0-.36V36.94h.71V40.5Z"/><path class="cls-1" d="M120.41,40.5V36.94h1.82v.57h-1v.9h.85V39h-.85v1h1v.57Z"/><path class="cls-1" d="M123.64,39.36a.74.74,0,1,1,.73-.74A.74.74,0,0,1,123.64,39.36Z"/><path class="cls-1" d="M125.92,40.55a1.68,1.68,0,0,1-.93-.21l.19-.59a1,1,0,0,0,.57.17.42.42,0,0,0,.48-.42c0-.23-.14-.37-.5-.53a1,1,0,0,1-.7-1,1.07,1.07,0,0,1,1.12-1.1,1.54,1.54,0,0,1,.83.21l-.17.51a1,1,0,0,0-.53-.15.38.38,0,0,0-.43.4c0,.26.18.39.48.53.68.31.78.68.78,1A1.12,1.12,0,0,1,125.92,40.55Z"/><path class="cls-1" d="M127.85,40.5V36.94h1.81v.57h-1v.9h.85V39h-.85v1h1v.57Z"/><path class="cls-1" d="M131.83,40.55c-1.08,0-1.61-.71-1.61-1.84a1.63,1.63,0,0,1,1.64-1.82,1.84,1.84,0,0,1,.94.21l-.24.52a1.16,1.16,0,0,0-.6-.13c-.57,0-.89.37-.89,1.24s.28,1.24.72,1.24a.65.65,0,0,0,.26,0v-1h-.42v-.5h1.2v1.93A1.82,1.82,0,0,1,131.83,40.55Z"/><path class="cls-1" d="M134.89,40.55a1.11,1.11,0,0,1-1.23-1.1V36.94h.84v2.5a.42.42,0,0,0,.43.48c.24,0,.42-.16.42-.48v-2.5h.78v2.51A1.11,1.11,0,0,1,134.89,40.55Z"/><path class="cls-1" d="M138.66,40.5l-.84-1.57h0V40.5H137V37.1a2.64,2.64,0,0,1,1.07-.21c1,0,1.41.44,1.41,1.11a.94.94,0,0,1-.82.91h0l.94,1.58Zm-.61-3.13a.75.75,0,0,0-.24,0v1.31l.18,0c.44,0,.65-.27.65-.7S138.5,37.37,138.05,37.37Z"/><path class="cls-1" d="M141.47,40.55c-1,0-1.39-.82-1.39-1.83s.4-1.83,1.39-1.83,1.39.83,1.39,1.83S142.46,40.55,141.47,40.55Zm0-3.1c-.45,0-.54.64-.54,1.24s.08,1.24.54,1.24.53-.63.53-1.24S141.91,37.45,141.47,37.45Z"/><polygon class="cls-1" points="2.14 41.61 2.14 37.43 2.14 36.81 2.14 30.97 2.15 29.03 2.15 18.42 32.58 1.16 63.01 18.42 63.01 29.03 63.01 30.97 63.02 36.81 63.02 37.43 63.02 41.61 32.58 58.84 2.14 41.61"/><g class="cls-2"><polygon class="cls-3" points="61.57 38.27 32.58 54.69 3.59 38.27 32.58 21.79 61.57 38.27"/><polygon class="cls-4" points="61.57 38.27 61.57 40.76 32.58 57.17 32.58 54.69 61.57 38.27"/><polygon class="cls-5" points="32.58 54.69 32.58 57.17 3.59 40.76 3.59 38.27 32.58 54.69"/></g><g class="cls-2"><polygon class="cls-3" points="61.56 31.81 32.58 48.23 3.59 31.82 32.56 15.33 61.56 31.81"/><polygon class="cls-4" points="61.56 31.81 61.57 35.97 32.58 52.38 32.58 48.23 61.56 31.81"/><polygon class="cls-5" points="32.58 48.23 32.58 52.38 3.59 35.97 3.59 31.82 32.58 48.23"/></g><g class="cls-2"><polygon class="cls-3" points="61.56 19.26 32.58 35.68 3.6 19.26 32.58 2.83 61.56 19.26"/><polygon class="cls-4" points="61.56 19.26 61.56 28.19 32.58 44.64 32.58 35.68 61.56 19.26"/><polygon class="cls-5" points="32.58 35.68 32.58 44.64 3.6 28.19 3.6 19.26 32.58 35.68"/></g><polygon class="cls-4" points="26.52 16.84 26.36 21 23.59 22.59 23.75 18.43 26.52 16.84"/><polygon class="cls-5" points="23.75 18.43 23.59 22.59 16.34 18.76 16.5 14.6 23.75 18.43"/><polygon class="cls-1" points="27.37 8.36 47.72 19.13 39.63 23.77 26.52 16.84 23.75 18.43 16.5 14.6 27.37 8.36"/><polygon class="cls-4" points="47.72 19.13 47.56 23.29 39.47 27.93 39.63 23.77 47.72 19.13"/><polygon class="cls-5" points="39.63 23.77 39.47 27.93 26.36 21 26.52 16.84 39.63 23.77"/></svg>